# xmcd CD database file
#
# Track frame offsets:
#	150
#	10520
#	23495
#	36320
#	45170
#	54095
#	68270
#	76670
#	83870
#	98495
#	104045
#	109520
#	118370
#	124220
#	133057
#	142295
#	151145
#	161945
#	171395
#	177920
#	192920
#	204395
#	211595
#
# Disc length: 2917 seconds
#
# Revision: 2
# Processed by: cddbd v1.4PL0 Copyright (c) Steve Scherf et al.
# Submitted via: CDex 1.40Release
#
DISCID=290b6317
DTITLE=Kentucky Colonels - Long Journey Home
DYEAR=1964
DGENRE=Bluegrass
TTITLE0=Roll On Buddy
TTITLE1=Bill Cheatham
TTITLE2=There Ain't Nobody Gonna Miss Me When I'm Gone
TTITLE3=Shucking the Corn
TTITLE4=A Beautiful Life
TTITLE5=Get Down on Your Knees and Pray
TTITLE6=Over in the Glory Land
TTITLE7=Sally Ann
TTITLE8=Brakeman's Blues
TTITLE9=Soldier's Joy
TTITLE10=Listen to the Mockingbird
TTITLE11=Farewell Blues
TTITLE12=Lonesome Road Blues
TTITLE13=Beaumont Rag
TTITLE14=Footprints in the Snow
TTITLE15=Long Journey Home
TTITLE16=In the Pines
TTITLE17=Chicken Reel
TTITLE18=Old Hickory
TTITLE19=Auld Lang Syne
TTITLE20=Nola
TTITLE21=Flat Fork
TTITLE22=Shady Grove
EXTD=YEAR: 1964 ID3G: 89
EXTT0=
EXTT1=
EXTT2=
EXTT3=
EXTT4=
EXTT5=
EXTT6=
EXTT7=
EXTT8=
EXTT9=
EXTT10=
EXTT11=
EXTT12=
EXTT13=
EXTT14=
EXTT15=
EXTT16=
EXTT17=
EXTT18=
EXTT19=
EXTT20=
EXTT21=
EXTT22=
PLAYORDER=
